<svg width="24" height="25" viewBox="0 0 24 25" fill="none" xmlns="http://www.w3.org/2000/svg">
<path d="M22.5333 24.95L13.7667 16.1833C13.1 16.7611 12.3227 17.2111 11.4347 17.5333C10.5467 17.8556 9.60182 18.0167 8.6 18.0167C6.1964 18.0167 4.16217 17.1833 2.4973 15.5167C0.832433 13.85 -4.76837e-07 11.8389 -4.76837e-07 9.48333C-4.76837e-07 7.12778 0.833333 5.11667 2.5 3.45C4.16667 1.78333 6.18333 0.950001 8.55 0.950001C10.9167 0.950001 12.9278 1.78333 14.5833 3.45C16.2389 5.11667 17.0667 7.12945 17.0667 9.48833C17.0667 10.4406 16.9111 11.3611 16.6 12.25C16.2889 13.1389 15.8222 13.9722 15.2 14.75L24 23.4833L22.5333 24.95ZM8.56667 16.0167C10.3722 16.0167 11.9069 15.3778 13.1708 14.1C14.4347 12.8222 15.0667 11.2833 15.0667 9.48333C15.0667 7.68333 14.4347 6.14445 13.1708 4.86667C11.9069 3.58889 10.3722 2.95 8.56667 2.95C6.7426 2.95 5.19213 3.58889 3.91527 4.86667C2.63842 6.14445 2 7.68333 2 9.48333C2 11.2833 2.63842 12.8222 3.91527 14.1C5.19213 15.3778 6.7426 16.0167 8.56667 16.0167Z" fill="#DB5E95"/>
</svg>
