<?xml version="1.0" encoding="utf-8"?>
<!-- Generator: Adobe Illustrator 23.0.0, SVG Export Plug-In . SVG Version: 6.00 Build 0)  -->
<svg version="1.1" id="Layer_1" xmlns="http://www.w3.org/2000/svg" xmlns:xlink="http://www.w3.org/1999/xlink" x="0px" y="0px"
	 viewBox="0 0 6.6 6.6" style="enable-background:new 0 0 6.6 6.6;" xml:space="preserve">
<style type="text/css">
	.st0{fill-rule:evenodd;clip-rule:evenodd;fill:#212221;}
</style>
<g>
	<path class="st0" d="M4.28004,3.05497C4.59999,2.78502,4.8,2.37498,4.8,1.92497c0-0.83997-0.66998-1.50995-1.5-1.50995
		c-0.82996,0-1.5,0.66998-1.5,1.50995c0,0.45001,0.20001,0.86005,0.52002,1.13C1.15004,3.41502,0.3,4.515,0.3,5.80497v0.38h0.5
		V5.82499c0-1.32001,1.07001-2.40002,2.40002-2.40002h0.20001C4.72999,3.42497,5.8,4.50499,5.8,5.82499v0.35999h0.5v-0.38
		C6.3,4.515,5.45002,3.41502,4.28004,3.05497z M2.3,1.92497c0-0.56,0.45001-1.00995,1-1.00995s1,0.44995,1,1.00995
		c0,0.55005-0.45001,1-1,1S2.3,2.47502,2.3,1.92497z"/>
</g>
</svg>
